<?xml version="1.0" encoding="UTF-8"?><svg id="Layer_2" xmlns="http://www.w3.org/2000/svg" viewBox="0 0 497.57 155.94"><defs><style>.cls-1{fill:#f8e03e;}.cls-2{fill:#11cef6;}</style></defs><g id="Layer_1-2"><path class="cls-2" d="m0,140V0h22.3v140H0Z"/><path class="cls-2" d="m97.81,22.66h-24.06v117.34h-22.3V22.66h-24.06V0h70.41v22.66Z"/><path class="cls-2" d="m102.9,128.58V11.42L113.79,0h44.95l10.89,11.42v28.92h-22.3v-14.74l-2.63-2.76h-16.86l-2.63,2.76v88.79l2.63,2.76h16.86l2.63-2.76v-14.74h22.3v28.92l-10.89,11.42h-44.95l-10.89-11.42Z"/><path class="cls-2" d="m200.36,0v57.84h25.11V0h22.3v140h-22.3v-59.5h-25.11v59.5h-22.3V0h22.3Z"/><path class="cls-2" d="m301.33,40.34v-14.74l-2.63-2.76h-17.03l-2.63,2.76v29.11l2.63,2.76h31.26l10.89,11.42v59.69l-10.89,11.42h-45.3l-10.89-11.42v-28.92h22.3v14.92l2.63,2.76h17.03l2.63-2.76v-31.68l-2.63-2.76h-31.08l-10.89-11.42V11.42l10.89-11.42h45.3l10.89,11.42v28.92h-22.48Z"/><path class="cls-2" d="m399.49,11.42v117.16l-10.89,11.42h-44.95l-10.89-11.42V11.42l10.89-11.42h44.95l10.89,11.42Zm-25.11,11.42h-16.86l-2.46,2.58v89.34l2.46,2.58h16.86l2.63-2.58V25.42l-2.63-2.58Z"/><path class="cls-2" d="m409.67,140V0h24.06l28.97,85.84V0h22.3v140h-24.06l-28.97-85.84v85.84h-22.3Z"/><path class="cls-1" d="m243.93,82.04c-5.1,7.47-10.4,14.1-15.89,19.9v52.3h-12.69v-40.3c-3.19,2.6-6.5,5.12-9.92,7.55-3.42,2.43-7.03,4.82-10.85,7.15l-6.22-12.1c4.71-2.73,9.16-5.67,13.37-8.8,4.2-3.13,8.22-6.5,12.06-10.1,3.84-3.6,7.52-7.47,11.06-11.6,3.53-4.13,7.01-8.6,10.42-13.4l8.66,9.4Z"/><path class="cls-1" d="m251.92,125.04c-.62-4.6-1.39-8.83-2.31-12.7-.92-3.87-2.12-7.83-3.57-11.9l10.93-4.4c1.74,4.73,3.11,9.03,4.12,12.9,1.01,3.87,1.85,7.97,2.52,12.3l-11.69,3.8Zm4.04,18.9c4.26-2.2,8-4.78,11.22-7.75,3.22-2.97,6.04-6.42,8.45-10.35,2.41-3.93,4.43-8.43,6.05-13.5,1.62-5.07,2.97-10.8,4.04-17.2l11.85,3.1c-1.12,6.93-2.62,13.27-4.5,19-1.88,5.73-4.26,10.92-7.15,15.55-2.89,4.63-6.35,8.8-10.38,12.5-4.04,3.7-8.77,7.02-14.21,9.95l-5.38-11.3Zm11.43-24.2c-.67-4.33-1.49-8.38-2.44-12.15-.95-3.77-2.1-7.68-3.45-11.75l10.68-4.5c.78,2.4,1.48,4.63,2.1,6.7.62,2.07,1.18,4.05,1.68,5.95.5,1.9.95,3.8,1.34,5.7.39,1.9.76,3.88,1.09,5.95l-11.01,4.1Z"/><path class="cls-1" d="m308.58,76.94c8.74.33,17.39.28,25.94-.15,8.55-.43,17.44-1.25,26.69-2.45v12.6c-6.56,1-13.06,1.7-19.5,2.1v11.8h26.31v13.1h-26.31v5c0,4.27-.64,8.2-1.93,11.8-1.29,3.6-3.12,6.9-5.51,9.9-2.38,3-5.24,5.77-8.58,8.3-3.33,2.53-7.05,4.87-11.14,7l-5.63-11.8c6.89-3.33,11.97-7.18,15.22-11.55,3.25-4.37,4.88-9.75,4.88-16.15v-2.5h-27.49v-13.1h27.49v-11.3c-3.36.13-6.74.18-10.13.15-3.39-.03-6.82-.12-10.3-.25v-12.5Z"/><path class="cls-1" d="m381.8,115.54c-1.18-5.4-2.59-10.57-4.25-15.5s-3.69-10.1-6.09-15.5l11.52-6c1.34,3.13,2.54,6,3.57,8.6,1.04,2.6,1.98,5.12,2.82,7.55.84,2.43,1.62,4.85,2.35,7.25.73,2.4,1.46,4.93,2.19,7.6l-12.11,6Zm2.02,27.2c5.04-3.8,9.49-7.78,13.33-11.95,3.84-4.17,7.13-8.82,9.88-13.95,2.75-5.13,4.99-10.92,6.73-17.35,1.74-6.43,3.08-13.82,4.04-22.15l12.69,3.1c-1.01,8.8-2.51,16.83-4.5,24.1-1.99,7.27-4.58,13.9-7.78,19.9-3.19,6-7.03,11.47-11.52,16.4-4.48,4.93-9.72,9.5-15.72,13.7l-7.15-11.8Z"/><path class="cls-1" d="m497.57,111.14c-4.26,5.8-8.62,10.95-13.07,15.45-4.46,4.5-9.14,8.45-14.04,11.85-4.91,3.4-10.06,6.32-15.47,8.75-5.41,2.43-11.22,4.45-17.44,6.05l-3.87-13c5.77-1.53,11.12-3.38,16.06-5.55,4.93-2.17,9.63-4.82,14.08-7.95,4.46-3.13,8.77-6.78,12.95-10.95,4.17-4.17,8.39-9.02,12.65-14.55l8.15,9.9Zm-39.85-4.9c-1.63-1.27-3.17-2.43-4.62-3.5-1.46-1.07-2.96-2.08-4.5-3.05-1.54-.97-3.15-1.92-4.83-2.85-1.68-.93-3.53-1.87-5.55-2.8l5.72-10.7c2.13.93,4.09,1.87,5.88,2.8,1.79.93,3.5,1.88,5.13,2.85,1.62.97,3.19,2,4.71,3.1,1.51,1.1,3.08,2.28,4.71,3.55l-6.64,10.6Z"/></g></svg>